<?xml version="1.0" encoding="utf-8"?>
<!DOCTYPE svg PUBLIC "-//W3C//DTD SVG 1.1//EN" "http://www.w3.org/Graphics/SVG/1.1/DTD/svg11.dtd">
<svg version="1.1" id="Layer_1" xmlns="http://www.w3.org/2000/svg" xmlns:xlink="http://www.w3.org/1999/xlink" x="0px" y="0px"
	 width="614px" height="128px" viewBox="0 0 614 128" enable-background="new 0 0 614 128" xml:space="preserve">
<g>
	<path fill="#4B4C4C" stroke="#4B4C4C" stroke-width="3" stroke-linecap="round" stroke-linejoin="round" d="M32.697,120.217
		c-5.375,0-13.516-2.432-19.506-6.912l7.065-8.191c4.454,3.072,9.523,4.607,12.441,4.607c6.758,0,12.288-4.352,12.288-9.729V89.111
		c-2.15,4.992-8.294,6.271-11.98,6.271c-12.902,0-24.729-7.04-24.729-19.072V51.734c0-10.24,11.98-19.969,24.729-19.073
		c4.915,0.384,11.059,1.92,13.055,7.808l1.229-7.168h10.137v66.691C57.426,111.641,45.907,120.217,32.697,120.217z M20.717,76.311
		c-0.461,6.019,6.144,8.705,12.595,8.705c5.836,0,11.673-3.328,11.673-8.576V51.35c0-4.607-6.451-8.191-11.98-8.32
		c-6.297,0-12.288,3.584-12.288,8.705V76.311z"/>
	<path fill="#4B4C4C" stroke="#4B4C4C" stroke-width="3" stroke-linecap="round" stroke-linejoin="round" d="M61.576,75.287v-3.584
		c0-10.753,9.83-19.969,23.961-19.969c4.915,0,10.905,2.688,12.595,6.783l-0.307-5.375c0-5.377-5.376-9.857-11.98-9.857
		c-3.072,0-7.526,1.537-11.673,4.865l-6.758-8.577c5.222-3.968,12.441-6.784,18.432-6.784c13.056,0,24.421,9.088,24.421,20.354V95
		h-9.983l-1.229-6.527c-1.536,5.375-9.369,7.295-13.209,7.295C72.634,95.768,61.576,86.295,61.576,75.287z M85.844,85.398
		c5.836,0,11.98-3.967,11.98-8.575v-6.272c0-5.119-5.376-8.704-11.98-8.704c-6.451,0-11.827,4.353-11.827,9.856v3.584
		C74.017,80.791,79.393,85.398,85.844,85.398z"/>
	<path fill="#4B4C4C" stroke="#4B4C4C" stroke-width="3" stroke-linecap="round" stroke-linejoin="round" d="M141.753,71.191h-11.98
		v4.096c0,5.376,5.375,9.855,11.98,9.855c3.687,0,8.909-1.791,12.749-6.271l10.137,6.145c-6.604,8.064-15.82,10.496-22.886,10.496
		c-13.055,0-24.421-8.576-24.421-20.225V53.143c0-10.753,10.598-20.481,24.421-20.481c13.209,0,24.268,9.089,24.268,20.353
		C166.021,64.662,154.809,71.191,141.753,71.191z M141.753,63.127c6.451,0,11.827-4.609,11.827-10.113
		c0-5.376-5.376-9.855-11.827-9.855c-6.604,0-11.98,4.607-11.98,10.111v9.857H141.753z"/>
	<path fill="#1E7CC1" stroke="#1E7CC1" stroke-width="3" stroke-linecap="round" stroke-linejoin="round" d="M187.832,19.988
		c0,3.713-3.84,6.4-7.987,6.4c-3.993,0-7.526-2.688-7.526-6.4c0-3.968,3.533-6.528,7.526-6.528
		C183.992,13.46,187.832,16.021,187.832,19.988z M186.142,95h-12.288V33.43h12.288V95z"/>
	<path fill="#1E7CC1" stroke="#1E7CC1" stroke-width="3" stroke-linecap="round" stroke-linejoin="round" d="M204.879,53.014V95
		h-12.441V33.301h9.83l1.689,6.272c2.765-5.376,8.755-6.656,12.902-6.912c13.363-0.64,24.422,9.729,24.422,20.353V95H228.84V53.014
		c0-5.376-5.529-9.984-12.134-9.984C210.255,43.029,204.879,47.638,204.879,53.014z"/>
	<path fill="#1E7CC1" stroke="#1E7CC1" stroke-width="3" stroke-linecap="round" stroke-linejoin="round" d="M263.092,19.988
		c0,3.713-3.84,6.4-7.986,6.4c-3.994,0-7.526-2.688-7.526-6.4c0-3.968,3.532-6.528,7.526-6.528
		C259.252,13.46,263.092,16.021,263.092,19.988z M261.403,95h-12.287V33.43h12.287V95z"/>
	<path fill="#1E7CC1" stroke="#1E7CC1" stroke-width="3" stroke-linecap="round" stroke-linejoin="round" d="M295.346,33.174v10.367
		h-15.36v30.723c0,5.889,7.681,10.496,16.742,10.496V95c-15.513,0-29.029-8.576-29.029-20.736V8.212h12.287v24.962H295.346z"/>
	<path fill="#B2B1B2" stroke="#B2B1B2" stroke-width="3" stroke-linecap="round" stroke-linejoin="round" d="M302.412,75.415V33.43
		h12.441v41.985c0,5.376,5.222,9.856,11.52,9.856c6.451,0,11.673-4.48,11.673-9.856V33.43h12.288v41.985
		c0,10.88-9.984,20.226-23.961,20.226C312.855,95.641,302.412,86.295,302.412,75.415z"/>
	<path fill="#B2B1B2" stroke="#B2B1B2" stroke-width="3" stroke-linecap="round" stroke-linejoin="round" d="M406.088,50.966v24.449
		c0,10.368-11.061,20.608-24.729,19.713c-4.146-0.256-9.062-1.024-11.826-5.248v30.466h-12.441V33.045h9.369l2.458,6.4
		c2.765-5.248,8.142-7.168,12.748-7.168C398.409,32.277,406.088,40.342,406.088,50.966z M393.646,50.966
		c0-5.12-5.528-8.448-12.287-8.448c-6.604,0-11.826,4.608-11.826,9.088v24.322c0.152,5.119,4.146,8.832,11.826,8.832
		c6.604,0,12.287-4.097,12.287-9.345V50.966z"/>
	<path fill="#B2B1B2" stroke="#B2B1B2" stroke-width="3" stroke-linecap="round" stroke-linejoin="round" d="M440.953,84.76V95
		C425.133,95,413,86.424,413,74.264V8.212h12.288v66.052C425.287,80.15,432.045,84.76,440.953,84.76z"/>
	<path fill="#B2B1B2" stroke="#B2B1B2" stroke-width="3" stroke-linecap="round" stroke-linejoin="round" d="M496.096,75.287
		c0,13.697-12.596,20.354-25.037,20.354c-12.594,0-24.883-6.656-24.883-20.354v-22.4c0-13.825,12.441-20.226,24.883-20.226
		c12.597,0,25.037,6.4,25.037,20.226V75.287z M483.654,52.887c0-6.529-6.299-9.985-12.597-9.985c-6.143,0-12.594,3.456-12.594,9.985
		v22.4c0,6.527,6.451,9.855,12.594,9.855c6.298,0,12.597-3.328,12.597-9.855V52.887z"/>
	<path fill="#B2B1B2" stroke="#B2B1B2" stroke-width="3" stroke-linecap="round" stroke-linejoin="round" d="M499.322,75.287v-3.584
		c0-10.753,9.83-19.969,23.961-19.969c4.916,0,10.906,2.688,12.596,6.783l-0.309-5.375c0-5.377-5.375-9.857-11.98-9.857
		c-3.07,0-7.524,1.537-11.672,4.865l-6.758-8.577c5.221-3.968,12.438-6.784,18.43-6.784c13.058,0,24.422,9.088,24.422,20.354V95
		h-9.981l-1.229-6.527c-1.537,5.375-9.371,7.295-13.211,7.295C510.381,95.768,499.322,86.295,499.322,75.287z M523.59,85.398
		c5.838,0,11.98-3.967,11.98-8.575v-6.272c0-5.119-5.375-8.704-11.98-8.704c-6.449,0-11.826,4.353-11.826,9.856v3.584
		C511.764,80.791,517.141,85.398,523.59,85.398z"/>
	<path fill="#B2B1B2" stroke="#B2B1B2" stroke-width="3" stroke-linecap="round" stroke-linejoin="round" d="M555.078,77.079V52.63
		c0-10.368,11.059-20.608,24.729-19.713c4.148,0.257,9.062,1.792,11.828,6.017V7.699h12.441V95h-9.369l-2.459-6.4
		c-2.764,5.248-8.141,7.168-12.748,7.168C562.758,95.768,555.078,87.703,555.078,77.079z M567.52,77.079
		c0,5.12,5.529,8.448,12.287,8.448c6.605,0,11.828-4.607,11.828-9.088V52.118c-0.153-5.12-4.147-8.833-11.828-8.833
		c-6.604,0-12.287,4.097-12.287,9.345V77.079z"/>
</g>
</svg>
